<svg width="704" height="198" viewBox="0 0 704 198" fill="none" xmlns="http://www.w3.org/2000/svg">
<path d="M27.6447 0H13.8224C13.8224 4.554 7.62994 8.25 0 8.25L0 16.5C7.62994 16.5 13.8224 20.196 13.8224 24.75C13.8224 29.304 7.62994 33 0 33L0 41.25C7.62994 41.25 13.8224 44.946 13.8224 49.5C13.8224 54.054 7.62994 57.75 0 57.75L0 66C7.62994 66 13.8224 69.696 13.8224 74.25C13.8224 78.804 7.62994 82.5 0 82.5L0 90.75C7.62994 90.75 13.8224 94.446 13.8224 99C13.8224 103.554 7.62994 107.25 0 107.25L0 115.5C7.62994 115.5 13.8224 119.196 13.8224 123.75C13.8224 128.304 7.62994 132 0 132L0 140.25C7.62994 140.25 13.8224 143.946 13.8224 148.5C13.8224 153.054 7.62994 156.75 0 156.75L0 165C7.62994 165 13.8224 168.696 13.8224 173.25C13.8224 177.804 7.62994 181.5 0 181.5L0 189.75C7.62994 189.75 13.8224 193.446 13.8224 198H27.6447C27.6447 193.446 33.8371 189.75 41.4671 189.75C49.097 189.75 55.2894 193.446 55.2894 198H69.1118C69.1118 193.446 75.3042 189.75 82.9341 189.75C90.564 189.75 96.7565 193.446 96.7565 198H110.579C110.579 193.446 116.771 189.75 124.401 189.75C132.031 189.75 138.224 193.446 138.224 198H152.046C152.046 193.446 158.238 189.75 165.868 189.75C173.498 189.75 179.691 193.446 179.691 198H193.513C193.513 193.446 199.705 189.75 207.335 189.75C214.965 189.75 221.158 193.446 221.158 198L234.98 198C234.98 193.446 241.172 189.75 248.802 189.75C256.432 189.75 262.625 193.446 262.625 198H276.447C276.447 193.446 282.639 189.75 290.269 189.75C297.899 189.75 304.092 193.446 304.092 198H317.914C317.914 193.446 324.107 189.75 331.736 189.75C339.366 189.75 345.559 193.446 345.559 198H359.381C359.381 193.446 365.574 189.75 373.203 189.75C380.833 189.75 387.026 193.446 387.026 198H400.848C400.848 193.446 407.041 189.75 414.671 189.75C422.3 189.75 428.493 193.446 428.493 198H442.315C442.315 193.545 448.259 189.932 455.668 189.783C463.076 189.932 469.02 193.545 469.02 198H482.842C482.842 193.446 489.035 189.75 496.665 189.75C504.295 189.75 510.487 193.446 510.487 198H524.309C524.309 193.446 530.502 189.75 538.132 189.75C545.762 189.75 551.954 193.446 551.954 198H565.776C565.776 193.446 571.969 189.75 579.599 189.75C587.229 189.75 593.421 193.446 593.421 198H607.244C607.244 193.446 613.436 189.75 621.066 189.75C628.696 189.75 634.888 193.446 634.888 198H648.711C648.711 193.446 654.903 189.75 662.533 189.75C670.163 189.75 676.355 193.446 676.355 198H690.178C690.178 193.446 696.37 189.75 704 189.75V181.5C696.37 181.5 690.178 177.804 690.178 173.25C690.178 168.696 696.37 165 704 165V156.75C696.37 156.75 690.178 153.054 690.178 148.5C690.178 143.946 696.37 140.25 704 140.25V132C696.37 132 690.178 128.304 690.178 123.75C690.178 119.196 696.37 115.5 704 115.5V107.25C696.37 107.25 690.178 103.554 690.178 99C690.178 94.446 696.37 90.75 704 90.75V82.5C696.37 82.5 690.178 78.804 690.178 74.25C690.178 69.696 696.37 66 704 66V57.75C696.37 57.75 690.178 54.054 690.178 49.5C690.178 44.946 696.37 41.25 704 41.25V33C696.37 33 690.178 29.304 690.178 24.75C690.178 20.196 696.37 16.5 704 16.5V8.25C696.37 8.25 690.178 4.554 690.178 0H676.355C676.355 4.554 670.163 8.25 662.533 8.25C654.903 8.25 648.711 4.554 648.711 0H634.888C634.888 4.554 628.696 8.25 621.066 8.25C613.436 8.25 607.244 4.554 607.244 0H593.421C593.421 4.554 587.229 8.25 579.599 8.25C571.969 8.25 565.776 4.554 565.776 0H551.954C551.954 4.554 545.762 8.25 538.132 8.25C530.502 8.25 524.309 4.554 524.309 0H510.487C510.487 4.554 504.295 8.25 496.665 8.25C489.035 8.25 482.842 4.554 482.842 0H469.02C469.02 4.455 463.076 8.06851 455.668 8.21701C448.259 8.06851 442.315 4.455 442.315 0H428.493C428.493 4.554 422.3 8.25 414.671 8.25C407.041 8.25 400.848 4.554 400.848 0H387.026C387.026 4.554 380.833 8.25 373.203 8.25C365.574 8.25 359.381 4.554 359.381 0H345.559C345.559 4.554 339.366 8.25 331.736 8.25C324.107 8.25 317.914 4.554 317.914 0H304.092C304.092 4.554 297.899 8.25 290.269 8.25C282.639 8.25 276.447 4.554 276.447 0H262.625C262.625 4.554 256.432 8.25 248.802 8.25C241.172 8.25 234.98 4.554 234.98 0L221.158 0C221.158 4.554 214.965 8.25 207.335 8.25C199.705 8.25 193.513 4.554 193.513 0H179.691C179.691 4.554 173.498 8.25 165.868 8.25C158.238 8.25 152.046 4.554 152.046 0H138.224C138.224 4.554 132.031 8.25 124.401 8.25C116.771 8.25 110.579 4.554 110.579 0H96.7565C96.7565 4.554 90.564 8.25 82.9341 8.25C75.3042 8.25 69.1118 4.554 69.1118 0H55.2894C55.2894 4.554 49.097 8.25 41.4671 8.25C33.8371 8.25 27.6447 4.554 27.6447 0Z" fill="url(#paint0_linear_1938_5120)"/>
<defs>
<linearGradient id="paint0_linear_1938_5120" x1="352" y1="198" x2="352" y2="0" gradientUnits="userSpaceOnUse">
<stop stop-color="#FFE5AF"/>
<stop offset="1" stop-color="#FFE5AF"/>
</linearGradient>
</defs>
</svg>
