<svg width="82" height="19" viewBox="0 0 82 19" fill="none" xmlns="http://www.w3.org/2000/svg">
<g clip-path="url(#clip0_1236_2356)">
<path d="M79.6387 7.18237C77.3577 5.10943 74.4377 4.52063 71.8165 3.99267C71.2012 3.86858 68.6155 3.36738 65.1985 3.37954C62.2992 3.38927 59.8466 3.76883 57.681 4.09972C57.0006 4.20434 56.3823 4.30896 55.832 4.40871C55.8379 4.32842 55.8468 4.25057 55.8468 4.16784C55.8468 2.25548 53.9623 0.705644 51.6369 0.705644C49.3116 0.705644 47.4271 2.25548 47.4271 4.16784C47.4271 5.13376 47.9093 6.00721 48.6874 6.63494C49.3796 7.23346 50.279 7.64951 50.9121 7.84658C51.8233 8.12882 52.7819 8.14098 53.6309 8.15314C54.6664 8.16774 55.5273 8.06799 56.1279 7.9731C55.9829 8.05096 55.7758 8.15558 55.5155 8.26263C54.0303 8.85872 52.6044 8.74437 52.0748 8.69571C51.3115 8.62515 49.2731 8.32346 47.7791 6.89284C46.1283 5.31137 45.5366 2.72992 46.9241 1.05357C47.362 0.523167 47.9034 0.197141 48.2821 0.00736441C48.1401 -0.0023677 45.2082 -0.182412 43.658 1.61073C42.6255 2.80291 42.8148 4.16541 42.8267 4.24327C42.9273 4.89289 43.229 5.38193 43.4391 5.66659C42.7616 4.97804 41.7232 4.04376 40.2617 3.12651C38.8949 2.26765 37.9423 1.66912 36.5814 1.39662C34.4129 0.963545 30.916 1.29444 29.8983 3.18003C29.0492 4.7542 30.3332 6.65927 30.8834 6.99989C31.2148 7.20426 31.5935 7.34051 31.5935 7.34051C31.8272 7.42567 32.055 7.48163 32.265 7.52056C31.555 6.95366 31.2976 6.19942 31.6082 5.64713C32.0136 4.92208 33.2265 4.85153 33.5135 4.83693C34.9602 4.7542 36.0933 5.53277 37.1731 6.29674C38.8505 7.48163 38.9363 8.16531 40.5043 9.10933C41.4421 9.67379 42.3326 9.98522 42.9154 10.1555C41.1108 10.4475 38.8476 10.5667 36.2974 10.0825C36.2293 10.0704 36.1228 10.0485 35.9927 10.0217C33.5194 9.51078 31.5225 8.55946 29.6557 7.37944C27.0463 5.72742 27.212 5.21891 25.5582 4.20677C20.8217 1.30904 14.1859 2.24818 9.51751 2.90997C9.51751 2.90997 7.36376 3.2214 4.63016 4.17271C3.1746 4.67878 2.43795 4.94398 2.02377 5.48898C1.8433 5.72498 1.6155 6.12887 1.08002 6.31864C0.683588 6.45976 0.281239 6.42326 0.00610352 6.37217C0.0800647 6.42083 0.988308 6.97799 1.93501 6.75172C2.2279 6.68116 2.46162 6.53518 2.87876 6.28215C3.42311 5.95125 3.77813 5.65199 3.86392 5.579C4.70116 4.88559 6.10938 4.32599 7.28389 4.06566C7.87262 3.93427 8.81636 3.78586 10.0234 3.86858C9.17433 4.10459 5.35202 5.25541 3.56808 8.46944C3.19531 9.14096 2.02968 11.2382 2.9468 13.5642C3.46749 14.8902 4.44969 15.7442 4.89642 16.1237C5.1686 16.3549 6.49102 17.4522 8.73057 18.0531C9.62106 18.2916 11.3754 18.7417 13.4848 18.3062C14.6918 18.0556 15.5084 17.6201 16.1356 17.2794C17.2805 16.6566 18.8278 15.8294 19.5319 14.2333C20.4046 12.2577 19.5348 10.5545 19.2479 10.0168C18.0526 7.78089 15.609 6.93906 14.9966 6.73712C14.4581 6.55951 12.4286 5.94882 9.99974 6.48409C9.15954 6.669 7.70399 6.98772 6.60344 8.12395C6.24843 8.49134 5.19818 9.69325 5.44077 11.3501C5.49698 11.7321 5.77508 13.1822 7.28093 14.1068C9.10037 15.2235 12.257 15.2917 13.615 13.7637C14.609 12.6445 14.538 10.7857 13.4404 9.87086C13.2481 9.71028 13.0499 9.6008 12.8931 9.52781C12.9552 9.70785 13.0203 9.97062 13.0026 10.2845C12.9641 10.9949 12.5115 11.9438 11.4908 12.338C10.0707 12.8854 8.6004 11.956 8.31343 11.7613C7.39335 11.1409 6.56794 9.95115 7.02058 8.82466C7.43477 7.79062 8.69802 7.36728 9.18913 7.20183C10.9701 6.60331 13.0943 6.96583 14.5794 7.90498C16.5645 9.15799 16.7983 11.0557 16.8367 11.5083C17.0763 14.3428 14.2895 16.0654 14.1623 16.1408C11.4671 17.749 8.4436 16.9315 8.13592 16.8439C5.8372 16.187 4.02959 14.4863 3.73079 12.501C3.39944 10.2845 5.09168 8.65678 5.96738 7.81495C7.72174 6.12643 9.85774 5.51574 10.9405 5.21891C13.2688 4.58146 15.1119 4.70554 18.171 4.91235C20.6442 5.08023 22.4844 5.21891 24.4399 6.11913C24.8393 6.30404 25.5257 6.669 26.8954 7.39891C28.1912 8.08989 29.2415 8.66652 29.9426 9.0558C29.2356 8.96091 27.6942 8.83926 26.0197 9.43535C25.4044 9.65432 22.7418 10.6008 22.3808 12.7345C22.1856 13.8927 22.7063 15.1822 23.8482 15.9778C25.0701 16.8293 27.0848 17.1772 27.7919 16.5544C28.1321 16.2551 28.2297 15.6834 27.9664 15.3281C27.7563 15.0435 27.3688 14.9802 27.067 14.8951C25.9547 14.5861 24.6884 13.664 24.5464 12.7151C24.3985 11.7419 25.4428 10.7881 26.3866 10.3891C26.9014 10.1726 27.3954 10.1385 28.3628 10.0777C29.7977 9.98765 30.9071 10.0825 31.2739 10.119C33.1023 10.2991 33.3922 10.5521 35.2619 10.8587C35.901 10.9633 37.6938 11.2334 39.9511 11.2188C41.5368 11.209 42.8681 11.063 43.8533 10.9122C43.4864 11.0217 40.9924 11.81 40.1937 13.8854C39.8682 14.7296 39.9392 15.4839 40.0398 15.9583C40.4392 15.6907 41.0605 15.333 41.9007 15.0873C42.8385 14.8148 43.0456 14.9729 44.2911 14.6785C45.7437 14.3355 46.5188 13.8732 46.7022 13.7588C47.1312 13.4936 47.4419 13.2284 47.646 13.0387C47.504 13.3331 47.3206 13.8221 47.362 14.4255C47.4241 15.3768 48.0454 16.7247 49.5305 17.1651C50.5216 17.4595 51.4476 17.2162 51.8322 17.0921C51.6636 16.732 51.4506 16.1432 51.4801 15.4157C51.5216 14.4961 51.9298 13.844 52.3115 13.2528C52.7227 12.6153 53.5244 11.5788 55.0066 10.5862C53.8321 12.5302 53.9712 14.7175 55.4001 16.1554C56.7077 17.4692 58.6218 17.6882 58.7964 17.7052C59.397 17.766 61.3436 17.9631 62.4767 16.822C63.4145 15.8804 63.1631 14.6688 63.1128 14.4425C63.1128 14.4498 63.1128 14.462 63.1128 14.4766C62.8879 13.4936 61.8406 12.7467 60.5774 12.7467C59.1514 12.7467 57.9976 13.698 57.9976 14.8683C57.9976 15.878 58.8526 16.7198 60.0005 16.9364C59.6721 16.9364 59.3585 16.9023 59.0834 16.8391C57.4266 16.4571 56.8142 15.08 56.6515 14.7126C55.9918 13.2284 56.6722 11.8732 56.9148 11.3964C57.7284 9.78084 59.2579 8.94145 60.5744 8.24317C61.1543 7.93417 63.5595 6.70063 67.2812 6.24322C68.6628 6.07291 73.062 5.58143 77.8015 7.43297C79.3783 8.04852 80.5647 8.75654 81.3516 9.28937C81.0321 8.73464 80.4996 7.96094 79.6416 7.17993L79.6387 7.18237Z" fill="#7F152E"/>
</g>
<defs>
<clipPath id="clip0_1236_2356">
<rect width="81.3455" height="18.4862" fill="white"/>
</clipPath>
</defs>
</svg>
