<svg width="16" height="17" viewBox="0 0 16 17" fill="none" xmlns="http://www.w3.org/2000/svg">
<path d="M0.4 5.79961C0.4 5.03389 0.400851 4.50007 0.455029 4.09734C0.507649 3.70619 0.603892 3.499 0.751643 3.35125C0.899394 3.2035 1.10658 3.10726 1.49773 3.05464C1.90046 3.00046 2.43428 2.99961 3.2 2.99961H12.8C13.5657 2.99961 14.0995 3.00046 14.5023 3.05464C14.8934 3.10726 15.1006 3.2035 15.2484 3.35125C15.3961 3.499 15.4924 3.70619 15.545 4.09734C15.5991 4.50007 15.6 5.03389 15.6 5.79961C15.6 5.99926 15.5992 6.10903 15.5889 6.18531C15.5888 6.18626 15.5887 6.1872 15.5886 6.18812C15.5875 6.18826 15.5865 6.1884 15.5854 6.18854C15.509 6.19877 15.3992 6.19961 15.2 6.19961H0.8C0.600353 6.19961 0.490579 6.19877 0.414304 6.18855C0.413347 6.18842 0.41241 6.18829 0.411491 6.18817C0.411349 6.18715 0.411208 6.18611 0.411066 6.18505C0.40084 6.10864 0.4 5.99882 0.4 5.79961Z" fill="black" stroke="black" stroke-width="0.8"/>
<path d="M3.83492 9.63319L3.83492 9.63318L3.83299 9.63512C3.68855 9.78056 3.63865 9.9552 3.61814 10.1083C3.59993 10.2442 3.59996 10.409 3.6 10.5785C3.6 10.5857 3.6 10.593 3.6 10.6002C3.6 10.6074 3.6 10.6146 3.6 10.6218C3.59996 10.791 3.59993 10.9557 3.61813 11.0918C3.63859 11.2446 3.68838 11.4197 3.83299 11.5653L3.83299 11.5653L3.83492 11.5672C3.98036 11.7116 4.15501 11.7615 4.3081 11.7821C4.44404 11.8003 4.60878 11.8002 4.77833 11.8002C4.78555 11.8002 4.79277 11.8002 4.8 11.8002H6.4C6.4072 11.8002 6.41439 11.8002 6.42158 11.8002C6.59083 11.8002 6.75554 11.8003 6.89156 11.7821C7.04443 11.7616 7.21947 11.7118 7.36508 11.5672L7.36701 11.5653C7.51145 11.4198 7.56135 11.2452 7.58186 11.0921C7.60007 10.9562 7.60004 10.7914 7.6 10.6219C7.6 10.6147 7.6 10.6074 7.6 10.6002C7.6 10.593 7.6 10.5857 7.6 10.5785C7.60004 10.409 7.60007 10.2442 7.58186 10.1083C7.56135 9.9552 7.51145 9.78056 7.36701 9.63512L7.36701 9.63511L7.36508 9.63319C7.21964 9.48874 7.04499 9.43884 6.8919 9.41834C6.75596 9.40013 6.59123 9.40016 6.42167 9.40019C6.41446 9.40019 6.40723 9.4002 6.4 9.4002H4.8C4.7928 9.4002 4.78561 9.40019 4.77842 9.40019C4.60917 9.40016 4.44446 9.40013 4.30844 9.41833C4.15557 9.43879 3.98053 9.48858 3.83492 9.63319ZM3.83492 12.8332L3.83492 12.8332L3.83299 12.8351C3.68838 12.9807 3.63859 13.1558 3.61813 13.3086C3.59993 13.4447 3.59996 13.6094 3.6 13.7786C3.6 13.7858 3.6 13.793 3.6 13.8002C3.6 13.8074 3.6 13.8146 3.6 13.8218C3.59996 13.991 3.59993 14.1557 3.61813 14.2918C3.63859 14.4446 3.68838 14.6197 3.83299 14.7653L3.83492 14.7672C3.98053 14.9118 4.15557 14.9616 4.30844 14.9821C4.44446 15.0003 4.60917 15.0002 4.77842 15.0002C4.78561 15.0002 4.7928 15.0002 4.8 15.0002H6.4C6.40723 15.0002 6.41445 15.0002 6.42167 15.0002C6.59122 15.0002 6.75596 15.0003 6.8919 14.9821C7.04499 14.9615 7.21964 14.9116 7.36508 14.7672L7.36701 14.7653C7.51162 14.6197 7.56141 14.4446 7.58187 14.2918C7.60007 14.1557 7.60004 13.991 7.6 13.8218C7.6 13.8146 7.6 13.8074 7.6 13.8002C7.6 13.793 7.6 13.7858 7.6 13.7786C7.60004 13.6094 7.60007 13.4447 7.58187 13.3086C7.56141 13.1558 7.51162 12.9807 7.36701 12.8351L7.36508 12.8332C7.21947 12.6886 7.04443 12.6388 6.89156 12.6183C6.75554 12.6001 6.59083 12.6002 6.42158 12.6002C6.41439 12.6002 6.4072 12.6002 6.4 12.6002H4.8C4.79277 12.6002 4.78555 12.6002 4.77833 12.6002C4.60878 12.6002 4.44404 12.6001 4.3081 12.6183C4.15501 12.6388 3.98036 12.6887 3.83492 12.8332ZM8.63492 9.63319L8.63299 9.63512C8.48855 9.78056 8.43865 9.9552 8.41814 10.1083C8.39993 10.2442 8.39997 10.409 8.4 10.5785L8.4 10.6002L8.4 10.6218C8.39997 10.791 8.39993 10.9557 8.41813 11.0918C8.43859 11.2446 8.48838 11.4197 8.63299 11.5653L8.63299 11.5653L8.63492 11.5672C8.78036 11.7116 8.95501 11.7615 9.1081 11.7821C9.24404 11.8003 9.40878 11.8002 9.57833 11.8002L9.6 11.8002H11.2L11.2216 11.8002C11.3908 11.8002 11.5555 11.8003 11.6916 11.7821C11.8444 11.7616 12.0195 11.7118 12.1651 11.5672L12.167 11.5653C12.3115 11.4198 12.3614 11.2452 12.3819 11.0921C12.4001 10.9562 12.4 10.7914 12.4 10.6219L12.4 10.6002L12.4 10.5785C12.4 10.409 12.4001 10.2442 12.3819 10.1083C12.3614 9.9552 12.3115 9.78056 12.167 9.63512L12.167 9.63511L12.1651 9.63319C12.0196 9.48874 11.845 9.43884 11.6919 9.41834C11.556 9.40013 11.3912 9.40016 11.2217 9.40019L11.2 9.4002H9.6L9.57842 9.40019C9.40917 9.40016 9.24446 9.40013 9.10844 9.41833C8.95557 9.43879 8.78053 9.48858 8.63492 9.63319ZM8.63492 12.8332L8.63299 12.8351C8.48838 12.9807 8.43859 13.1558 8.41813 13.3086C8.39993 13.4447 8.39997 13.6094 8.4 13.7786L8.4 13.8002L8.4 13.8218C8.39997 13.991 8.39993 14.1557 8.41813 14.2918C8.43859 14.4446 8.48838 14.6197 8.63299 14.7653L8.63492 14.7672C8.78036 14.9116 8.95501 14.9615 9.1081 14.9821C9.24404 15.0003 9.40878 15.0002 9.57833 15.0002L9.6 15.0002H11.2L11.2217 15.0002C11.3912 15.0002 11.556 15.0003 11.6919 14.9821C11.845 14.9615 12.0196 14.9116 12.1651 14.7672L12.167 14.7653C12.3116 14.6197 12.3614 14.4446 12.3819 14.2918C12.4001 14.1557 12.4 13.991 12.4 13.8218L12.4 13.8002L12.4 13.7786C12.4 13.6094 12.4001 13.4447 12.3819 13.3086C12.3614 13.1558 12.3116 12.9807 12.167 12.8351L12.1651 12.8332C12.0195 12.6886 11.8444 12.6388 11.6916 12.6183C11.5555 12.6001 11.3908 12.6002 11.2216 12.6002L11.2 12.6002H9.6L9.57833 12.6002C9.40878 12.6002 9.24404 12.6001 9.1081 12.6183C8.95501 12.6388 8.78036 12.6887 8.63492 12.8332ZM0.751643 15.4486C0.603892 15.3008 0.507649 15.0936 0.455029 14.7025C0.400851 14.2997 0.4 13.7659 0.4 13.0002V9.0002C0.4 8.80099 0.40084 8.69116 0.411066 8.61475C0.411208 8.61369 0.411349 8.61265 0.411491 8.61164C0.41241 8.61151 0.413347 8.61138 0.414304 8.61125C0.490579 8.60104 0.600353 8.6002 0.8 8.6002H15.2C15.3992 8.6002 15.509 8.60104 15.5854 8.61126C15.5865 8.6114 15.5875 8.61154 15.5886 8.61169C15.5887 8.61261 15.5888 8.61354 15.5889 8.6145C15.5992 8.69077 15.6 8.80055 15.6 9.0002V13.0002C15.6 13.7659 15.5991 14.2997 15.545 14.7025C15.4924 15.0936 15.3961 15.3008 15.2484 15.4486C15.1006 15.5963 14.8934 15.6925 14.5023 15.7452C14.0995 15.7993 13.5657 15.8002 12.8 15.8002H3.2C2.43428 15.8002 1.90046 15.7993 1.49773 15.7452C1.10658 15.6925 0.899394 15.5963 0.751643 15.4486Z" fill="black" stroke="black" stroke-width="0.8"/>
<path d="M4 1V3.4ZM12 1V3.4Z" fill="black"/>
<path d="M4 1V3.4M12 1V3.4" stroke="black" stroke-width="1.6" stroke-linecap="round"/>
</svg>
