<svg width="15" height="21" viewBox="0 0 15 21" fill="none" xmlns="http://www.w3.org/2000/svg">
<path d="M7.19928 8.64025C7.99457 8.64025 8.63928 7.99554 8.63928 7.20025C8.63928 6.40496 7.99457 5.76025 7.19928 5.76025C6.40399 5.76025 5.75928 6.40496 5.75928 7.20025C5.75928 7.99554 6.40399 8.64025 7.19928 8.64025Z" fill="black"/>
<path d="M7.2 0C3.2301 0 0 3.08925 0 6.885C0 8.69265 0.82395 11.0965 2.4489 14.0301C3.7539 16.3854 5.26365 18.5152 6.0489 19.575C6.18159 19.7561 6.35508 19.9033 6.55531 20.0048C6.75553 20.1063 6.97686 20.1592 7.20135 20.1592C7.42584 20.1592 7.64717 20.1063 7.84739 20.0048C8.04762 19.9033 8.22111 19.7561 8.3538 19.575C9.1377 18.5152 10.6488 16.3854 11.9538 14.0301C13.5761 11.0974 14.4 8.69355 14.4 6.885C14.4 3.08925 11.1699 0 7.2 0ZM7.2 10.08C6.63039 10.08 6.07357 9.91109 5.59996 9.59463C5.12634 9.27817 4.75721 8.82838 4.53923 8.30213C4.32125 7.77588 4.26421 7.1968 4.37534 6.63814C4.48646 6.07947 4.76076 5.56631 5.16353 5.16353C5.56631 4.76076 6.07947 4.48646 6.63814 4.37534C7.1968 4.26421 7.77588 4.32125 8.30213 4.53923C8.82838 4.75721 9.27817 5.12634 9.59463 5.59996C9.91109 6.07357 10.08 6.63039 10.08 7.2C10.0792 7.96357 9.77547 8.69562 9.23555 9.23555C8.69562 9.77547 7.96357 10.0792 7.2 10.08Z" fill="black"/>
</svg>
