<svg width="140" height="120" viewBox="0 0 140 120" fill="none" xmlns="http://www.w3.org/2000/svg">
<g filter="url(#filter0_d_1236_3684)">
<path d="M135.381 100.56C132.376 100.561 129.934 97.8352 129.93 94.4753C129.926 91.1154 132.362 88.3875 135.367 88.3864L135.36 82.2996C132.355 82.3007 129.913 79.5747 129.909 76.2148C129.905 72.8548 132.34 70.127 135.345 70.1259L135.338 64.0391C132.333 64.0402 129.891 61.3142 129.887 57.9542C129.883 54.5943 132.319 51.8665 135.324 51.8654L135.316 45.7785C132.311 45.7796 129.869 43.0536 129.865 39.6937C129.861 36.3338 132.297 33.6059 135.302 33.6048L135.295 27.518C132.29 27.5191 129.848 24.7931 129.844 21.4332C129.84 18.0732 132.275 15.3454 135.28 15.3443L135.273 9.25746C132.268 9.25856 129.826 6.53256 129.822 3.17262L124.378 3.17462C124.382 6.53456 121.946 9.26237 118.942 9.26347C115.937 9.26458 113.494 6.53857 113.49 3.17863L108.047 3.18064C108.051 6.54058 105.615 9.26838 102.61 9.26949C99.6051 9.2706 97.1631 6.54459 97.1591 3.18465L91.7153 3.18666C91.7193 6.5466 89.2837 9.2744 86.2787 9.27551C83.2737 9.27662 80.8316 6.55061 80.8276 3.19067L75.3838 3.19268C75.3878 6.55261 72.9522 9.28042 69.9473 9.28153C66.9423 9.28263 64.5002 6.55662 64.4962 3.19669L59.0524 3.19869C59.0564 6.55863 56.6208 9.28644 53.6159 9.28754C50.6109 9.28865 48.1688 6.56264 48.1648 3.2027L42.721 3.20471C42.725 6.56465 40.2894 9.29245 37.2844 9.29356C34.2795 9.29467 31.8374 6.56866 31.8334 3.20872L26.3896 3.21073C26.3936 6.57067 23.958 9.29847 20.953 9.29958C17.948 9.30069 15.506 6.57468 15.502 3.21474L10.0582 3.21674C10.0622 6.57668 7.62659 9.30449 4.62161 9.3056L4.62884 15.3924C7.63382 15.3913 10.0759 18.1173 10.0799 21.4773C10.0839 24.8372 7.64827 27.565 4.64329 27.5661L4.65052 33.653C7.6555 33.6519 10.0976 36.3779 10.1016 39.7378C10.1055 43.0978 7.66996 45.8256 4.66498 45.8267L4.6722 51.9135C7.67718 51.9124 10.1192 54.6384 10.1232 57.9983C10.1272 61.3583 7.69164 64.0861 4.68666 64.0872L4.69389 70.174C7.69887 70.1729 10.1409 72.8989 10.1449 76.2589C10.1489 79.6188 7.71332 82.3466 4.70834 82.3477L4.71557 88.4346C7.72055 88.4335 10.1626 91.1595 10.1666 94.5194C10.1706 97.8794 7.73501 100.607 4.73003 100.608L4.73725 106.695C7.74223 106.694 10.1843 109.42 10.1883 112.78L15.6321 112.778C15.6281 109.418 18.0637 106.69 21.0687 106.689C24.0736 106.688 26.5157 109.414 26.5197 112.774L31.9635 112.772C31.9595 109.412 34.3951 106.684 37.4001 106.683C40.4051 106.682 42.8471 109.408 42.8511 112.768L48.2949 112.766C48.2909 109.406 50.7265 106.678 53.7315 106.677C56.7365 106.676 59.1785 109.402 59.1825 112.762L64.6263 112.76C64.6223 109.4 67.0579 106.672 70.0629 106.671C73.0679 106.67 75.51 109.396 75.5139 112.756L80.9577 112.754C80.9538 109.394 83.3893 106.666 86.3943 106.665C89.3993 106.664 91.8414 109.39 91.8454 112.75L97.2892 112.748C97.2852 109.388 99.7208 106.66 102.726 106.659C105.731 106.658 108.173 109.384 108.177 112.744L113.621 112.742C113.617 109.382 116.052 106.654 119.057 106.653C122.062 106.652 124.504 109.378 124.508 112.738L129.952 112.736C129.948 109.376 132.384 106.648 135.389 106.647L135.381 100.56Z" fill="url(#paint0_linear_1236_3684)"/>
</g>
<defs>
<filter id="filter0_d_1236_3684" x="0.121582" y="0.472852" width="139.767" height="118.607" filterUnits="userSpaceOnUse" color-interpolation-filters="sRGB">
<feFlood flood-opacity="0" result="BackgroundImageFix"/>
<feColorMatrix in="SourceAlpha" type="matrix" values="0 0 0 0 0 0 0 0 0 0 0 0 0 0 0 0 0 0 127 0" result="hardAlpha"/>
<feOffset dy="1.8"/>
<feGaussianBlur stdDeviation="2.25"/>
<feComposite in2="hardAlpha" operator="out"/>
<feColorMatrix type="matrix" values="0 0 0 0 0 0 0 0 0 0 0 0 0 0 0 0 0 0 0.25 0"/>
<feBlend mode="normal" in2="BackgroundImageFix" result="effect1_dropShadow_1236_3684"/>
<feBlend mode="normal" in="SourceGraphic" in2="effect1_dropShadow_1236_3684" result="shape"/>
</filter>
<linearGradient id="paint0_linear_1236_3684" x1="4.67943" y1="58.0004" x2="135.331" y2="57.8452" gradientUnits="userSpaceOnUse">
<stop stop-color="#FFE5AF"/>
<stop offset="1" stop-color="#E6A263"/>
</linearGradient>
</defs>
</svg>
