<svg width="29" height="29" viewBox="0 0 29 29" fill="none" xmlns="http://www.w3.org/2000/svg">
<path d="M21.7998 26.1668C20.8276 26.1668 20.0012 25.8266 19.3206 25.146C18.6401 24.4654 18.2998 23.6391 18.2998 22.6668C18.2998 22.5307 18.3095 22.3896 18.329 22.2433C18.3484 22.0971 18.3776 21.9661 18.4165 21.8502L10.1915 17.0668C9.86092 17.3585 9.49147 17.5872 9.08314 17.7528C8.6748 17.9185 8.24703 18.0009 7.7998 18.0002C6.82758 18.0002 6.00119 17.6599 5.32064 16.9793C4.64008 16.2988 4.2998 15.4724 4.2998 14.5002C4.2998 13.5279 4.64008 12.7016 5.32064 12.021C6.00119 11.3404 6.82758 11.0002 7.7998 11.0002C8.24703 11.0002 8.6748 11.083 9.08314 11.2487C9.49147 11.4143 9.86092 11.6426 10.1915 11.9335L18.4165 7.15016C18.3776 7.0335 18.3484 6.90244 18.329 6.757C18.3095 6.61155 18.2998 6.47039 18.2998 6.3335C18.2998 5.36127 18.6401 4.53489 19.3206 3.85433C20.0012 3.17377 20.8276 2.8335 21.7998 2.8335C22.772 2.8335 23.5984 3.17377 24.279 3.85433C24.9595 4.53489 25.2998 5.36127 25.2998 6.3335C25.2998 7.30572 24.9595 8.13211 24.279 8.81266C23.5984 9.49322 22.772 9.8335 21.7998 9.8335C21.3526 9.8335 20.9248 9.75105 20.5165 9.58616C20.1081 9.42127 19.7387 9.19261 19.4081 8.90016L11.1831 13.6835C11.222 13.8002 11.2512 13.9316 11.2706 14.0778C11.2901 14.2241 11.2998 14.3648 11.2998 14.5002C11.2998 14.6355 11.2901 14.7767 11.2706 14.9237C11.2512 15.0707 11.222 15.2017 11.1831 15.3168L19.4081 20.1002C19.7387 19.8085 20.1081 19.5802 20.5165 19.4153C20.9248 19.2504 21.3526 19.1676 21.7998 19.1668C22.772 19.1668 23.5984 19.5071 24.279 20.1877C24.9595 20.8682 25.2998 21.6946 25.2998 22.6668C25.2998 23.6391 24.9595 24.4654 24.279 25.146C23.5984 25.8266 22.772 26.1668 21.7998 26.1668Z" fill="url(#paint0_linear_1338_9235)"/>
<defs>
<linearGradient id="paint0_linear_1338_9235" x1="4.2998" y1="14.5002" x2="25.2998" y2="14.5002" gradientUnits="userSpaceOnUse">
<stop stop-color="#FFE5AF"/>
<stop offset="1" stop-color="#E6A263"/>
</linearGradient>
</defs>
</svg>
