<svg width="24" height="24" viewBox="0 0 24 24" fill="none" xmlns="http://www.w3.org/2000/svg">
<g clip-path="url(#clip0_548_517)">
<path fill-rule="evenodd" clip-rule="evenodd" d="M10.9401 7.94011C11.2213 7.65921 11.6026 7.50143 12.0001 7.50143C12.3976 7.50143 12.7788 7.65921 13.0601 7.94011L18.7181 13.5961C18.9994 13.8775 19.1573 14.2591 19.1572 14.657C19.1571 15.0548 18.999 15.4363 18.7176 15.7176C18.4362 15.9989 18.0546 16.1568 17.6567 16.1567C17.2589 16.1566 16.8774 15.9985 16.5961 15.7171L12.0001 11.1211L7.4041 15.7171C7.12132 15.9905 6.74249 16.1419 6.34919 16.1386C5.9559 16.1354 5.5796 15.9778 5.30136 15.6998C5.02311 15.4219 4.86518 15.0457 4.86158 14.6524C4.85798 14.2591 5.00899 13.8801 5.2821 13.5971L10.9391 7.93911L10.9401 7.94011Z" fill="url(#paint0_linear_548_517)"/>
</g>
<defs>
<linearGradient id="paint0_linear_548_517" x1="12.0094" y1="16.1567" x2="12.0094" y2="7.50143" gradientUnits="userSpaceOnUse">
<stop stop-color="#7F152E"/>
<stop offset="1" stop-color="#BB3C59"/>
</linearGradient>
<clipPath id="clip0_548_517">
<rect width="24" height="24" fill="white"/>
</clipPath>
</defs>
</svg>
