<svg width="163" height="45" viewBox="0 0 163 45" fill="none" xmlns="http://www.w3.org/2000/svg">
<path d="M3.4324 17.4842C8.00299 12.4394 13.8541 11.0065 19.1064 9.72158C20.3394 9.41959 25.5206 8.19983 32.3676 8.22944C38.1772 8.25312 43.0916 9.17683 47.431 9.98211C48.7945 10.2367 50.0335 10.4913 51.1361 10.7341C51.1243 10.5387 51.1065 10.3492 51.1065 10.1479C51.1065 5.49385 54.8827 1.72206 59.5422 1.72206C64.2017 1.72206 67.9779 5.49385 67.9779 10.1479C67.9779 12.4986 67.0117 14.6243 65.4525 16.152C64.0654 17.6086 62.2632 18.6211 60.9946 19.1007C59.1687 19.7876 57.248 19.8172 55.5466 19.8468C53.4718 19.8823 51.7467 19.6396 50.5433 19.4086C50.8338 19.5981 51.2487 19.8527 51.7704 20.1133C54.7463 21.5639 57.6037 21.2856 58.6648 21.1672C60.1943 20.9955 64.2788 20.2613 67.2725 16.7796C70.5804 12.9309 71.766 6.64848 68.9857 2.56878C68.1084 1.27797 67.0235 0.484528 66.2647 0.0226758C66.5493 -0.00100895 72.424 -0.439177 75.5304 3.92474C77.5993 6.82612 77.2199 10.142 77.1962 10.3315C76.9946 11.9124 76.39 13.1026 75.9691 13.7954C77.3266 12.1197 79.4074 9.84592 82.3359 7.61363C85.0747 5.52346 86.9835 4.06684 89.7105 3.40367C94.0558 2.3497 101.063 3.15498 103.102 7.7439C104.804 11.5749 102.231 16.2112 101.128 17.0402C100.464 17.5375 99.7053 17.8691 99.7053 17.8691C99.237 18.0764 98.7805 18.2126 98.3596 18.3073C99.7824 16.9277 100.298 15.0921 99.6757 13.748C98.8635 11.9835 96.433 11.8118 95.8579 11.7762C92.9591 11.5749 90.6886 13.4697 88.5248 15.3289C85.1636 18.2126 84.9917 19.8764 81.8498 22.1738C79.9706 23.5475 78.1862 24.3055 77.0183 24.7199C80.6345 25.4305 85.1695 25.7206 90.2796 24.5423C90.4159 24.5127 90.6293 24.4594 90.8902 24.3943C95.8461 23.1508 99.8476 20.8356 103.588 17.9639C108.817 13.9434 108.485 12.7059 111.799 10.2426C121.29 3.19051 134.586 5.47609 143.941 7.08665C143.941 7.08665 148.257 7.84456 153.734 10.1597C156.651 11.3913 158.127 12.0368 158.957 13.3631C159.319 13.9375 159.775 14.9204 160.848 15.3822C161.642 15.7257 162.449 15.6368 163 15.5125C162.852 15.6309 161.032 16.9869 159.135 16.4362C158.548 16.2645 158.08 15.9092 157.244 15.2934C156.153 14.4881 155.442 13.7598 155.27 13.5822C153.592 11.8947 150.77 10.5328 148.417 9.89921C147.237 9.57947 145.346 9.21827 142.927 9.41959C144.629 9.99395 152.288 12.7947 155.863 20.6166C156.609 22.2508 158.945 27.3549 157.107 33.0155C156.064 36.2426 154.096 38.3209 153.201 39.2446C152.655 39.8071 150.006 42.4776 145.518 43.9401C143.734 44.5204 140.218 45.6158 135.991 44.5559C133.573 43.946 131.937 42.8861 130.68 42.0572C128.386 40.5413 125.285 38.5281 123.874 34.6438C122.126 29.8358 123.868 25.691 124.443 24.3824C126.838 18.9409 131.735 16.8921 132.962 16.4007C134.041 15.9684 138.108 14.4822 142.975 15.7849C144.658 16.2349 147.575 17.0106 149.78 19.7757C150.492 20.6698 152.596 23.5949 152.11 27.6272C151.997 28.5569 151.44 32.0859 148.423 34.3359C144.777 37.0538 138.452 37.2196 135.731 33.501C133.739 30.7773 133.881 26.2535 136.08 24.0272C136.466 23.6364 136.863 23.3699 137.177 23.1923C137.053 23.6304 136.922 24.2699 136.958 25.0338C137.035 26.7627 137.942 29.072 139.987 30.0312C142.832 31.3635 145.779 29.1016 146.354 28.6279C148.197 27.118 149.851 24.2226 148.944 21.481C148.114 18.9645 145.583 17.9343 144.599 17.5316C141.03 16.075 136.774 16.9573 133.798 19.2428C129.82 22.2922 129.352 26.9108 129.275 28.0121C128.795 34.9103 134.379 39.1025 134.634 39.286C140.034 43.1999 146.093 41.2104 146.709 40.9973C151.316 39.3985 154.938 35.2596 155.536 30.428C156.2 25.0338 152.81 21.0725 151.055 19.0238C147.539 14.9145 143.259 13.4282 141.09 12.7059C136.424 11.1545 132.731 11.4565 126.601 11.9598C121.645 12.3683 117.958 12.7059 114.04 14.8967C113.239 15.3467 111.864 16.2349 109.119 18.0112C106.523 19.6928 104.418 21.0962 103.013 22.0436C104.43 21.8126 107.519 21.5166 110.874 22.9673C112.107 23.5002 117.442 25.8035 118.166 30.9964C118.557 33.8149 117.513 36.9531 115.225 38.8893C112.777 40.9617 108.74 41.8085 107.323 40.2926C106.641 39.5643 106.446 38.1729 106.973 37.3084C107.394 36.6156 108.171 36.4616 108.775 36.2544C111.004 35.5024 113.542 33.2583 113.826 30.949C114.123 28.5805 112.03 26.2594 110.139 25.2884C109.107 24.7614 108.117 24.6785 106.179 24.5305C103.304 24.3114 101.081 24.5423 100.346 24.6311C96.682 25.0693 96.101 25.6851 92.3544 26.4312C91.0739 26.6858 87.4815 27.343 82.9583 27.3075C79.7809 27.2838 77.1132 26.9285 75.1391 26.5614C75.8742 26.8279 80.8716 28.7463 82.4722 33.7971C83.1243 35.8518 82.982 37.6873 82.7805 38.842C81.9802 38.1906 80.7353 37.3202 79.0517 36.7222C77.1725 36.059 76.7575 36.4439 74.2618 35.7274C71.351 34.8925 69.7979 33.7675 69.4303 33.4892C68.5707 32.8438 67.9483 32.1984 67.5393 31.7365C67.8238 32.453 68.1914 33.6432 68.1084 35.1116C67.9839 37.4268 66.739 40.7071 63.763 41.7789C61.7771 42.4953 59.9216 41.9032 59.1509 41.6012C59.4889 40.7249 59.9157 39.292 59.8564 37.5215C59.7734 35.2833 58.9553 33.6964 58.1906 32.2576C57.3666 30.7063 55.7601 28.1838 52.7901 25.768C55.1435 30.499 54.8649 35.8222 52.0016 39.3216C49.3814 42.519 45.5459 43.0519 45.1961 43.0934C43.9927 43.2414 40.092 43.721 37.8215 40.944C35.9423 38.6525 36.4462 35.7037 36.547 35.1531C36.547 35.1708 36.547 35.2004 36.547 35.236C36.9975 32.8438 39.0961 31.026 41.6274 31.026C44.4847 31.026 46.7967 33.3412 46.7967 36.1893C46.7967 38.6466 45.0835 40.6953 42.7834 41.2223C43.4414 41.2223 44.0698 41.1394 44.6211 40.9854C47.9408 40.0558 49.168 36.7044 49.494 35.8103C50.816 32.1984 49.4525 28.9003 48.9664 27.7397C47.3362 23.8081 44.2713 21.7653 41.6333 20.0659C40.4714 19.3139 35.6518 16.3119 28.1942 15.1987C25.4258 14.7842 16.6106 13.5881 7.11377 18.0941C3.95407 19.5922 1.57689 21.3153 0 22.612C0.640244 21.262 1.70731 19.379 3.42647 17.4783L3.4324 17.4842Z" fill="url(#paint0_linear_541_747)"/>
<defs>
<linearGradient id="paint0_linear_541_747" x1="81.5" y1="0" x2="81.5" y2="45" gradientUnits="userSpaceOnUse">
<stop stop-color="#441C42"/>
<stop offset="1" stop-color="#7F152E"/>
</linearGradient>
</defs>
</svg>
