<svg width="26" height="26" viewBox="0 0 26 26" fill="none" xmlns="http://www.w3.org/2000/svg">
<g opacity="0.6" clip-path="url(#clip0_1160_1754)">
<path fill-rule="evenodd" clip-rule="evenodd" d="M11.375 2.16675C9.90667 2.16687 8.45963 2.51814 7.15464 3.19125C5.84965 3.86436 4.72455 4.83978 3.8732 6.03615C3.02186 7.23251 2.46896 8.61512 2.26063 10.0686C2.0523 11.5221 2.19459 13.0044 2.67562 14.3917C3.15666 15.779 3.96248 17.0312 5.02587 18.0438C6.08926 19.0563 7.37938 19.7999 8.78859 20.2125C10.1978 20.625 11.6852 20.6946 13.1268 20.4154C14.5684 20.1362 15.9223 19.5163 17.0755 18.6074L21.0319 22.5637C21.2362 22.7611 21.5098 22.8703 21.7939 22.8678C22.0779 22.8653 22.3496 22.7514 22.5505 22.5506C22.7514 22.3497 22.8653 22.078 22.8678 21.7939C22.8702 21.5099 22.761 21.2362 22.5637 21.0319L18.6074 17.0756C19.6777 15.7178 20.3441 14.086 20.5304 12.3671C20.7167 10.6482 20.4152 8.9116 19.6606 7.35602C18.906 5.80043 17.7287 4.48872 16.2634 3.571C14.7981 2.65328 13.104 2.16663 11.375 2.16675ZM4.33336 11.3751C4.33336 9.50751 5.07525 7.71644 6.39582 6.39587C7.71639 5.0753 9.50746 4.33341 11.375 4.33341C13.2426 4.33341 15.0337 5.0753 16.3542 6.39587C17.6748 7.71644 18.4167 9.50751 18.4167 11.3751C18.4167 13.2426 17.6748 15.0337 16.3542 16.3543C15.0337 17.6749 13.2426 18.4167 11.375 18.4167C9.50746 18.4167 7.71639 17.6749 6.39582 16.3543C5.07525 15.0337 4.33336 13.2426 4.33336 11.3751Z" fill="url(#paint0_linear_1160_1754)"/>
</g>
<defs>
<linearGradient id="paint0_linear_1160_1754" x1="12.5176" y1="2.16675" x2="12.5176" y2="22.8679" gradientUnits="userSpaceOnUse">
<stop stop-color="#441C42"/>
<stop offset="1" stop-color="#692D63"/>
</linearGradient>
<clipPath id="clip0_1160_1754">
<rect width="26" height="26" fill="white"/>
</clipPath>
</defs>
</svg>
