<svg width="521" height="165" viewBox="0 0 521 165" fill="none" xmlns="http://www.w3.org/2000/svg">
<g filter="url(#filter0_d_914_919)">
<path d="M57.8455 47.9145H106.451V92.4146C95.5659 104.05 79.238 110.925 62.8346 110.925C31.3127 110.925 4.93115 85.6149 4.93115 55.6963C4.93115 25.7022 31.3127 0.619019 62.8346 0.619019C79.3136 0.619019 95.5659 7.4187 106.451 18.9026L87.024 36.1284C81.279 29.0265 71.9812 24.6445 62.8346 24.6445C46.2044 24.6445 32.0687 38.9238 32.0687 55.6963C32.0687 72.62 46.2044 86.8993 62.8346 86.8993C69.0331 86.8993 75.3829 84.8594 80.6743 81.3084V67.9357H57.8455V47.9145Z" fill="#FFE5AF"/>
<path d="M150.674 26.2311V42.8525H202.832V66.5758H150.674V85.3127H208.124V109.036H124.141V2.50781H208.124V26.2311H150.674Z" fill="#FFE5AF"/>
<path d="M301.781 85.3127V109.036H224.073V2.50781H250.454V85.3127H301.781Z" fill="#FFE5AF"/>
<path d="M342.299 26.2311V42.8525H394.457V66.5758H342.299V85.3127H399.749V109.036H315.766V2.50781H399.749V26.2311H342.299Z" fill="#FFE5AF"/>
<path d="M477.154 55.545L515.479 109.036H484.411L461.507 77.0773L438.376 109.036H407.836L446.313 55.9983L407.836 2.43201H439.056L461.885 34.2394L485.016 2.43201H515.555L477.154 55.545Z" fill="#FFE5AF"/>
</g>
<g filter="url(#filter1_d_914_919)">
<path d="M19.599 133.022H32.5439V144.689C29.6103 147.514 24.7211 149.273 20.2975 149.273C11.5667 149.273 4 142.328 4 134.133C4 125.939 11.4736 118.994 20.2975 118.994C24.6978 118.994 29.6103 120.753 32.5439 123.578L29.3309 126.471C27.1657 124.318 23.5337 122.929 20.2975 122.929C14.0113 122.929 8.74955 128.045 8.74955 134.064C8.74955 140.083 13.988 145.268 20.2975 145.268C22.9516 145.268 25.8852 144.342 27.9806 142.837V136.68H19.599V133.022Z" fill="#FFE5AF"/>
<path d="M56.3152 143.09L59.1091 145.845C57.0137 147.952 52.9626 149.248 49.5867 149.248C43.0211 149.248 37.48 144.456 37.48 137.65C37.48 130.845 42.7185 126.192 49.2375 126.192C56.4316 126.192 60.5759 131.308 60.5759 139.155H42.1131C42.6719 142.813 45.5356 145.452 49.5867 145.452C52.0313 145.521 54.895 144.479 56.2919 143.09H56.3152ZM42.183 135.822H56.2454C55.7565 132.419 53.5214 129.919 49.4703 129.919C45.8383 129.988 42.9047 132.28 42.2063 135.822H42.183Z" fill="#FFE5AF"/>
<path d="M65.8379 118.994H70.3081V148.74H65.8379V118.994Z" fill="#FFE5AF"/>
<path d="M96.5232 135.429V148.716H92.1229V145.707C90.3767 147.999 87.1638 149.249 84.3001 149.249C79.341 149.249 75.6392 146.494 75.6392 142.235C75.6392 137.975 79.8299 134.896 85.0218 134.896C87.3268 134.896 89.8412 135.359 92.0763 136.077V135.429C92.0763 132.674 90.7492 129.734 86.0695 129.734C83.7646 129.734 81.4597 130.591 79.4341 131.563L77.8277 128.484C81.1803 126.91 84.1138 126.262 86.7214 126.262C93.0775 126.192 96.5931 129.989 96.5931 135.429H96.5232ZM92.1229 141.841V138.901C90.237 138.369 88.0718 138.045 85.697 138.045C82.5539 138.045 79.8998 139.688 79.8998 142.096C79.8998 144.503 82.1349 145.892 85.1382 145.892C88.1416 145.892 91.3546 144.526 92.1229 141.841Z" fill="#FFE5AF"/>
<path d="M123.808 134.711V148.739H119.407V135.451C119.407 132.164 117.172 129.872 114.029 129.872C110.886 129.872 107.953 131.909 107.603 134.456V148.739H103.133V126.724H107.603V129.942C109 127.789 111.864 126.215 115.077 126.215C120.176 126.215 123.808 129.757 123.808 134.734V134.711Z" fill="#FFE5AF"/>
<path d="M152.633 126.724V146.378C152.633 152.003 147.674 156.007 140.736 156.007C136.755 156.007 133.193 154.757 130.934 153.068L132.681 149.919C134.427 151.424 137.221 152.35 140.014 152.35C145.043 152.35 148.117 150.128 148.117 146.262V143.044C146.231 145.544 143.367 147.049 139.782 147.049C133.635 147.049 129.072 142.72 129.072 136.562C129.072 130.405 133.542 126.145 139.782 126.145C143.344 126.145 146.347 127.72 148.117 130.196V126.655H152.587V126.724H152.633ZM148.093 136.678C148.093 132.743 145.09 129.942 140.899 129.942C136.708 129.942 133.775 132.766 133.775 136.678C133.775 140.59 136.708 143.484 140.899 143.484C145.09 143.484 148.093 140.66 148.093 136.678Z" fill="#FFE5AF"/>
<path d="M181.643 126.724V146.378C181.643 152.003 176.683 156.007 169.745 156.007C165.764 156.007 162.179 154.757 159.944 153.068L161.69 149.919C163.436 151.424 166.23 152.35 169.024 152.35C174.053 152.35 177.126 150.128 177.126 146.262V143.044C175.24 145.544 172.376 147.049 168.791 147.049C162.644 147.049 158.081 142.72 158.081 136.562C158.081 130.405 162.551 126.145 168.791 126.145C172.353 126.145 175.356 127.72 177.126 130.196V126.655H181.596V126.724H181.643ZM177.172 136.678C177.172 132.743 174.169 129.942 169.978 129.942C165.787 129.942 162.854 132.766 162.854 136.678C162.854 140.59 165.787 143.484 169.978 143.484C174.169 143.484 177.172 140.66 177.172 136.678Z" fill="#FFE5AF"/>
<path d="M208.089 135.429V148.716H203.689V145.707C201.943 147.999 198.73 149.249 195.866 149.249C190.907 149.249 187.205 146.494 187.205 142.235C187.205 137.975 191.396 134.896 196.564 134.896C198.869 134.896 201.384 135.359 203.619 136.077V135.429C203.619 132.674 202.292 129.734 197.612 129.734C195.307 129.734 193.002 130.591 190.977 131.563L189.37 128.484C192.723 126.91 195.656 126.262 198.241 126.262C204.597 126.192 208.112 129.989 208.112 135.429H208.089ZM203.689 141.841V138.901C201.803 138.369 199.638 138.045 197.263 138.045C194.12 138.045 191.466 139.688 191.466 142.096C191.466 144.503 193.701 145.892 196.704 145.892C199.708 145.892 202.921 144.526 203.689 141.841Z" fill="#FFE5AF"/>
<path d="M235.354 134.711V148.739H230.954V135.451C230.954 132.164 228.719 129.872 225.576 129.872C222.433 129.872 219.499 131.909 219.15 134.456V148.739H214.68V126.724H219.15V129.942C220.547 127.789 223.41 126.215 226.623 126.215C231.722 126.215 235.354 129.757 235.354 134.734V134.711Z" fill="#FFE5AF"/>
<path d="M264.178 126.724V146.378C264.178 152.003 259.219 156.007 252.281 156.007C248.3 156.007 244.714 154.757 242.479 153.068L244.225 149.919C245.972 151.424 248.765 152.35 251.559 152.35C256.588 152.35 259.661 150.128 259.661 146.262V143.044C257.776 145.544 254.912 147.049 251.326 147.049C245.18 147.049 240.617 142.72 240.617 136.562C240.617 130.405 245.087 126.145 251.326 126.145C254.889 126.145 257.892 127.72 259.661 130.196V126.655H264.132V126.724H264.178ZM259.638 136.678C259.638 132.743 256.635 129.942 252.444 129.942C248.253 129.942 245.32 132.766 245.32 136.678C245.32 140.59 248.253 143.484 252.444 143.484C256.635 143.484 259.638 140.66 259.638 136.678Z" fill="#FFE5AF"/>
<path d="M288.647 123.507V131.817H305.154V135.822H288.647V144.734H306.97V148.739H283.967V119.525H306.9V123.53H288.647V123.507Z" fill="#FFE5AF"/>
<path d="M328.365 148.74L321.939 140.685L315.513 148.74H310.554L319.518 137.467L310.927 126.726H316.026L322.032 134.319L328.039 126.726H332.998L324.477 137.467L333.441 148.74H328.412H328.365Z" fill="#FFE5AF"/>
<path d="M361.66 137.72C361.66 144.456 357.05 149.248 350.81 149.248C347.178 149.248 344.245 147.604 342.429 144.919V156.054H337.958V126.701H342.429V130.497C344.245 127.812 347.178 126.169 350.81 126.169C357.027 126.169 361.66 130.96 361.66 137.697V137.72ZM357.12 137.72C357.12 133.136 354.046 129.849 349.786 129.849C345.525 129.849 342.522 133.067 342.522 137.72C342.522 142.373 345.595 145.59 349.786 145.59C353.977 145.59 357.12 142.303 357.12 137.72Z" fill="#FFE5AF"/>
<path d="M365.874 137.72C365.874 131.423 371.532 126.261 378.26 126.261C384.989 126.261 390.576 131.493 390.576 137.72C390.576 143.947 384.919 149.248 378.26 149.248C371.601 149.248 365.874 143.947 365.874 137.72ZM386.083 137.72C386.083 133.46 382.521 129.849 378.26 129.849C373.999 129.849 370.367 133.46 370.367 137.72C370.367 141.979 373.93 145.59 378.26 145.59C382.591 145.59 386.083 142.048 386.083 137.72Z" fill="#FFE5AF"/>
<path d="M492.529 142.976V139.319L506.312 118.925H509.385V124.295H507.429L497.581 138.925V139.157H516.486V142.976H492.552H492.529ZM507.662 148.81V140.199L507.685 118.925H512.249V148.81H507.662Z" fill="#FFE5AF"/>
<path d="M407.688 145.199L419.167 136.356C423.357 133.068 424.964 130.592 424.964 127.906C424.964 124.689 422.17 122.86 419.097 122.86C415.674 122.86 413.23 124.573 410.995 127.189L407.921 124.642C410.645 121.101 414.347 119.017 419.26 119.017C425.057 119.017 429.69 122.559 429.69 127.86C429.69 131.795 427.665 134.874 422.356 138.995L415.022 144.759H429.993V148.763H407.758V145.222L407.688 145.199Z" fill="#FFE5AF"/>
<path d="M435.115 134.133C435.115 125.291 440.633 118.994 448.479 118.994C456.325 118.994 461.773 125.291 461.773 134.133C461.773 142.976 456.255 149.273 448.479 149.273C440.702 149.273 435.115 142.976 435.115 134.133ZM457.07 134.133C457.07 127.582 453.508 122.999 448.479 122.999C443.45 122.999 439.794 127.582 439.794 134.133C439.794 140.685 443.357 145.338 448.479 145.338C453.601 145.338 457.07 140.685 457.07 134.133Z" fill="#FFE5AF"/>
<path d="M466.359 145.199L477.837 136.356C482.028 133.068 483.635 130.592 483.635 127.906C483.635 124.689 480.841 122.86 477.768 122.86C474.345 122.86 471.901 124.573 469.665 127.189L466.592 124.642C469.316 121.101 473.018 119.017 477.931 119.017C483.728 119.017 488.361 122.559 488.361 127.86C488.361 131.795 486.335 134.874 481.027 138.995L473.693 144.759H488.664V148.763H466.429V145.222L466.359 145.199Z" fill="#FFE5AF"/>
</g>
<defs>
<filter id="filter0_d_914_919" x="0.931152" y="0.619019" width="518.624" height="118.306" filterUnits="userSpaceOnUse" color-interpolation-filters="sRGB">
<feFlood flood-opacity="0" result="BackgroundImageFix"/>
<feColorMatrix in="SourceAlpha" type="matrix" values="0 0 0 0 0 0 0 0 0 0 0 0 0 0 0 0 0 0 127 0" result="hardAlpha"/>
<feOffset dy="4"/>
<feGaussianBlur stdDeviation="2"/>
<feComposite in2="hardAlpha" operator="out"/>
<feColorMatrix type="matrix" values="0 0 0 0 0 0 0 0 0 0 0 0 0 0 0 0 0 0 0.25 0"/>
<feBlend mode="normal" in2="BackgroundImageFix" result="effect1_dropShadow_914_919"/>
<feBlend mode="normal" in="SourceGraphic" in2="effect1_dropShadow_914_919" result="shape"/>
</filter>
<filter id="filter1_d_914_919" x="0" y="118.925" width="520.486" height="45.129" filterUnits="userSpaceOnUse" color-interpolation-filters="sRGB">
<feFlood flood-opacity="0" result="BackgroundImageFix"/>
<feColorMatrix in="SourceAlpha" type="matrix" values="0 0 0 0 0 0 0 0 0 0 0 0 0 0 0 0 0 0 127 0" result="hardAlpha"/>
<feOffset dy="4"/>
<feGaussianBlur stdDeviation="2"/>
<feComposite in2="hardAlpha" operator="out"/>
<feColorMatrix type="matrix" values="0 0 0 0 0 0 0 0 0 0 0 0 0 0 0 0 0 0 0.25 0"/>
<feBlend mode="normal" in2="BackgroundImageFix" result="effect1_dropShadow_914_919"/>
<feBlend mode="normal" in="SourceGraphic" in2="effect1_dropShadow_914_919" result="shape"/>
</filter>
</defs>
</svg>
