<svg width="122" height="306" viewBox="0 0 122 306" fill="none" xmlns="http://www.w3.org/2000/svg">
<g filter="url(#filter0_i_216_130)">
<path d="M96.3327 10.2594C93.5828 17.3813 91.9533 24.8083 90.8329 32.3371C89.6107 41.0868 89.3052 49.9383 89.8144 58.7897C90.7311 73.949 93.8884 88.8032 99.1845 103.047C104.379 117.189 109.98 131.229 115.582 145.167C117.212 149.135 118.739 153.205 120.267 157.275C120.573 157.987 120.776 158.801 120.98 159.513C121.286 160.53 121.184 161.548 120.776 162.565C120.267 162.26 120.165 161.751 119.962 161.344C116.804 156.359 113.036 151.781 108.351 148.016C105.601 145.88 102.749 144.15 99.3882 143.031C95.0087 141.607 90.5274 141.708 86.2497 143.336C81.1573 145.269 76.9815 148.525 73.7224 152.9C69.3429 158.902 68.8337 165.414 71.4817 172.23C73.7224 177.826 77.5926 182.201 82.2776 185.965C82.685 185.457 82.2776 185.152 82.0739 184.745C80.3425 181.082 79.0185 177.419 78.3056 173.451C77.6945 170.196 77.5926 166.94 78.4074 163.684C79.324 159.92 81.361 156.868 84.5183 154.731C91.3422 150.153 98.3697 149.644 105.499 153.714C108.758 155.545 111.406 158.19 113.749 161.141C117.11 165.516 119.452 170.297 120.98 175.588C122.712 181.387 122.1 187.186 119.86 192.68C117.11 199.599 112.527 205.093 106.823 209.773C100.814 214.555 94.0921 217.912 86.4534 219.235C74.8427 221.168 64.3523 218.624 55.6952 210.383C50.9083 205.907 47.9547 200.209 46.1214 194.003C44.2882 187.899 43.7789 181.692 44.1863 175.283C45.0011 164.193 47.0381 153.408 49.5843 142.624C54.8804 119.529 61.8061 96.9424 69.0373 74.356C74.2316 58.3827 80.037 42.7147 86.759 27.2501C88.6941 22.8753 90.6292 18.6022 92.9717 14.4308C93.8884 12.803 94.805 11.1751 96.129 9.75073C96.129 10.056 96.2309 10.1577 96.3327 10.2594Z" fill="#FFE5AF"/>
<path d="M94.6007 4.25651C79.4253 33.5578 68.3238 64.3852 58.7501 95.823C53.8613 111.593 49.6855 127.566 46.1208 143.743C43.8802 154.019 41.9451 164.396 40.5192 174.774C39.6025 181.794 38.9914 188.814 38.9914 195.834C38.9914 198.886 39.297 201.938 39.6025 204.991C40.0099 209.06 39.7044 213.13 38.0748 216.894C36.4452 220.862 33.5935 223.711 29.4177 225.034C28.1955 225.44 27.0752 225.44 25.9548 224.83C25.3437 224.525 24.6308 224.22 24.0197 223.914C16.8903 219.946 10.5757 214.961 5.27959 208.755C4.4648 207.738 3.65001 206.618 2.93707 205.601C0.594558 202.244 -0.0165327 198.581 0.49271 194.613C1.51119 187.084 3.95556 179.962 7.01101 172.942C8.13135 170.399 9.25168 167.957 10.6776 165.617C11.3905 164.498 12.1034 163.48 13.0201 162.565C14.446 161.242 14.7515 159.513 14.3441 157.681C14.0386 156.46 13.5293 155.443 12.8164 154.324C9.96462 149.542 8.43689 144.353 8.2332 138.859C8.13135 136.214 8.74244 133.772 9.76092 131.33C11.8997 126.142 14.6497 121.258 17.3996 116.375C23.0012 106.506 29.214 96.9422 34.9175 87.0733C40.8247 77.001 47.7504 67.7426 54.4724 58.2807C67.509 40.3744 80.5456 22.5698 93.6841 4.66347C93.8878 4.35825 94.0915 4.05302 94.2952 3.7478C94.6007 3.84954 94.4989 4.05302 94.6007 4.25651Z" fill="#FFE5AF"/>
<path d="M56.1083 240.905C56.312 245.89 56.8213 251.486 57.4324 257.081C58.349 264.814 59.5712 272.546 60.8952 280.176C62.3211 288.01 63.8488 295.743 65.5802 303.475C65.5802 303.577 65.6821 303.78 65.6821 303.882C65.6821 304.391 66.1913 304.899 65.5802 305.306C64.9691 305.815 64.2562 306.12 63.4414 305.917C62.7285 305.713 62.1174 305.205 61.6081 304.696C60.2841 303.17 59.4693 301.237 58.8582 299.304C57.9416 296.353 57.4324 293.403 56.9231 290.35C55.1917 280.482 53.9695 270.511 52.7473 260.642C51.627 251.689 50.7104 242.838 49.6919 233.884C49.59 232.765 49.59 232.765 48.4697 232.562C46.4327 232.155 44.4976 231.646 42.7662 230.629C41.9514 230.222 41.1366 229.611 40.5255 228.899C39.507 227.78 39.2015 226.457 39.8126 225.033C40.7292 222.693 40.831 220.251 41.4421 217.911C41.8495 215.978 42.3588 214.045 43.1736 212.214C43.4791 211.4 43.8865 210.688 44.4976 210.077C45.5161 208.856 46.7383 208.653 48.1641 209.365C48.7752 209.67 49.3863 210.077 49.8956 210.586C53.0529 214.045 57.025 216.283 61.2007 218.115C64.2562 219.539 67.4135 220.76 70.5708 222.083C71.793 222.591 73.0152 223.202 74.1355 224.016C75.7651 225.236 75.7651 226.356 74.2374 227.678C72.0985 229.51 69.4505 230.425 66.7006 231.036C63.6451 231.748 60.4878 231.951 57.3305 231.951C56.2102 231.951 56.2102 231.951 56.2102 232.969C56.1083 235.614 56.1083 237.954 56.1083 240.905Z" fill="#FFE5AF"/>
<path d="M94.6024 4.25734C94.5006 4.05385 94.6024 3.85037 94.2969 3.74863C94.5006 3.13819 95.1117 2.62949 95.4172 2.01904C95.6209 2.01904 95.6209 2.12078 95.7228 2.32426C95.3154 2.93471 95.1117 3.74863 94.6024 4.25734Z" fill="#FFE5AF"/>
<path d="M95.7186 2.32316C95.7186 2.22142 95.6168 2.01794 95.4131 2.01794C95.6168 1.50924 95.9223 1.20402 96.4316 0.695312C96.4316 1.4075 96.126 1.9162 95.7186 2.32316Z" fill="#FFE5AF"/>
<path d="M96.333 10.2628C96.2308 10.1606 96.1286 10.0584 96.0264 9.95623C96.1286 9.75182 96.2308 9.343 96.5374 9.54741C96.7418 9.75182 96.5374 10.0584 96.333 10.2628Z" fill="#FFE5AF"/>
</g>
<defs>
<filter id="filter0_i_216_130" x="0.325684" y="0.695312" width="126.154" height="309.785" filterUnits="userSpaceOnUse" color-interpolation-filters="sRGB">
<feFlood flood-opacity="0" result="BackgroundImageFix"/>
<feBlend mode="normal" in="SourceGraphic" in2="BackgroundImageFix" result="shape"/>
<feColorMatrix in="SourceAlpha" type="matrix" values="0 0 0 0 0 0 0 0 0 0 0 0 0 0 0 0 0 0 127 0" result="hardAlpha"/>
<feOffset dx="4.5" dy="4.5"/>
<feGaussianBlur stdDeviation="2.25"/>
<feComposite in2="hardAlpha" operator="arithmetic" k2="-1" k3="1"/>
<feColorMatrix type="matrix" values="0 0 0 0 0 0 0 0 0 0 0 0 0 0 0 0 0 0 0.25 0"/>
<feBlend mode="normal" in2="shape" result="effect1_innerShadow_216_130"/>
</filter>
</defs>
</svg>
