<svg width="12" height="7" viewBox="0 0 12 7" fill="none" xmlns="http://www.w3.org/2000/svg">
<path d="M0.984229 0.164665C0.928537 0.112038 0.863025 0.0708954 0.791434 0.0435863C0.719842 0.0162773 0.643572 0.0033363 0.566979 0.005503C0.490387 0.0076697 0.414971 0.0249014 0.345037 0.056214C0.275104 0.0875266 0.212023 0.132307 0.159395 0.187998C0.106768 0.24369 0.0656254 0.309202 0.0383164 0.380794C0.0110073 0.452385 -0.00193337 0.528655 0.000233334 0.605248C0.00240004 0.68184 0.0196316 0.757257 0.0509442 0.82719C0.0822568 0.897124 0.127037 0.960205 0.182729 1.01283L5.43273 5.97117C5.54104 6.07356 5.68443 6.13062 5.83348 6.13062C5.98253 6.13062 6.12592 6.07356 6.23423 5.97117L11.4848 1.01283C11.5417 0.960552 11.5877 0.897485 11.62 0.827294C11.6523 0.757104 11.6704 0.681189 11.6731 0.603959C11.6759 0.526728 11.6633 0.449723 11.636 0.377415C11.6087 0.305107 11.5674 0.238937 11.5143 0.18275C11.4612 0.126563 11.3976 0.0814782 11.3269 0.0501146C11.2563 0.018751 11.1801 0.00173377 11.1029 5.11603e-05C11.0256 -0.00163145 10.9488 0.012054 10.8769 0.040313C10.8049 0.068572 10.7393 0.110841 10.6839 0.164665L5.83348 4.745L0.984229 0.164665Z" fill="#FFE5AF"/>
</svg>
