<svg width="12" height="7" viewBox="0 0 12 7" fill="none" xmlns="http://www.w3.org/2000/svg">
<path d="M10.8498 6.46595C10.9054 6.51858 10.971 6.55972 11.0426 6.58703C11.1141 6.61434 11.1904 6.62728 11.267 6.62511C11.3436 6.62295 11.419 6.60571 11.4889 6.5744C11.5589 6.54309 11.622 6.49831 11.6746 6.44262C11.7272 6.38693 11.7684 6.32141 11.7957 6.24982C11.823 6.17823 11.8359 6.10196 11.8338 6.02537C11.8316 5.94877 11.8144 5.87336 11.783 5.80343C11.7517 5.73349 11.7069 5.67041 11.6513 5.61778L6.40126 0.65945C6.29295 0.557054 6.14955 0.5 6.00051 0.5C5.85146 0.5 5.70806 0.557054 5.59976 0.65945L0.349171 5.61778C0.292261 5.67006 0.246305 5.73313 0.213974 5.80332C0.181643 5.87351 0.163581 5.94943 0.160837 6.02666C0.158093 6.10389 0.170723 6.18089 0.197991 6.2532C0.225259 6.32551 0.266622 6.39168 0.319679 6.44787C0.372736 6.50405 0.436428 6.54914 0.507057 6.5805C0.577685 6.61186 0.653841 6.62888 0.731102 6.63056C0.808362 6.63225 0.885187 6.61856 0.957114 6.5903C1.02904 6.56204 1.09463 6.51977 1.15009 6.46595L6.00051 1.88562L10.8498 6.46595Z" fill="#FFE5AF"/>
</svg>
