<svg width="499" height="585" viewBox="0 0 499 585" fill="none" xmlns="http://www.w3.org/2000/svg">
<g filter="url(#filter0_d_1726_4366)">
<rect x="36.2578" y="32" width="426.414" height="513.112" rx="17.6935" fill="#7F152E"/>
<rect x="42.4505" y="38.1927" width="414.029" height="500.727" rx="11.5008" stroke="#E6A263" stroke-width="12.3855"/>
<g clip-path="url(#clip0_1726_4366)">
<path d="M243.874 487.633C241.094 484.562 237.537 483.689 234.343 482.907C233.594 482.723 230.443 481.981 226.28 481.999C222.748 482.013 219.76 482.576 217.121 483.066C216.292 483.221 215.539 483.376 214.868 483.524C214.875 483.405 214.886 483.289 214.886 483.167C214.886 480.334 212.59 478.038 209.757 478.038C206.924 478.038 204.628 480.334 204.628 483.167C204.628 484.598 205.215 485.892 206.163 486.822C207.007 487.708 208.103 488.325 208.874 488.617C209.984 489.035 211.152 489.053 212.187 489.071C213.448 489.093 214.497 488.945 215.229 488.804C215.052 488.919 214.8 489.074 214.483 489.233C212.673 490.116 210.936 489.947 210.291 489.875C209.361 489.77 206.877 489.323 205.057 487.204C203.046 484.861 202.325 481.036 204.015 478.553C204.549 477.767 205.208 477.284 205.67 477.003C205.497 476.989 201.925 476.722 200.036 479.378C198.778 481.145 199.008 483.163 199.023 483.278C199.145 484.241 199.513 484.965 199.769 485.387C198.944 484.367 197.678 482.983 195.898 481.624C194.233 480.352 193.072 479.465 191.414 479.061C188.772 478.42 184.511 478.91 183.271 481.703C182.237 484.035 183.801 486.858 184.472 487.362C184.875 487.665 185.337 487.867 185.337 487.867C185.621 487.993 185.899 488.076 186.155 488.134C185.29 487.294 184.976 486.176 185.355 485.358C185.849 484.284 187.326 484.18 187.676 484.158C189.439 484.035 190.819 485.189 192.135 486.321C194.178 488.076 194.283 489.089 196.193 490.487C197.336 491.324 198.421 491.785 199.131 492.037C196.932 492.47 194.175 492.647 191.068 491.929C190.985 491.911 190.855 491.879 190.697 491.839C187.683 491.082 185.25 489.673 182.976 487.925C179.797 485.477 179.998 484.724 177.984 483.224C172.213 478.931 164.128 480.323 158.44 481.303C158.44 481.303 155.816 481.765 152.485 483.174C150.712 483.924 149.814 484.317 149.31 485.124C149.09 485.474 148.812 486.072 148.16 486.353C147.677 486.562 147.187 486.508 146.852 486.432C146.942 486.504 148.048 487.33 149.202 486.995C149.559 486.89 149.843 486.674 150.352 486.299C151.015 485.809 151.447 485.365 151.552 485.257C152.572 484.23 154.288 483.401 155.719 483.015C156.436 482.821 157.586 482.601 159.056 482.723C158.022 483.073 153.365 484.778 151.191 489.539C150.737 490.534 149.317 493.641 150.434 497.087C151.069 499.052 152.266 500.317 152.81 500.879C153.141 501.222 154.753 502.847 157.481 503.738C158.566 504.091 160.704 504.758 163.274 504.112C164.744 503.741 165.739 503.096 166.503 502.591C167.898 501.669 169.783 500.443 170.641 498.078C171.705 495.152 170.645 492.629 170.295 491.832C168.839 488.519 165.862 487.272 165.115 486.973C164.459 486.71 161.987 485.805 159.028 486.598C158.004 486.872 156.23 487.344 154.89 489.028C154.457 489.572 153.177 491.353 153.473 493.807C153.541 494.373 153.88 496.521 155.715 497.891C157.932 499.546 161.778 499.646 163.432 497.383C164.643 495.725 164.557 492.971 163.22 491.616C162.985 491.378 162.744 491.216 162.553 491.107C162.628 491.374 162.708 491.763 162.686 492.228C162.639 493.281 162.088 494.687 160.844 495.271C159.114 496.082 157.323 494.705 156.973 494.416C155.852 493.497 154.846 491.735 155.398 490.066C155.902 488.534 157.442 487.907 158.04 487.662C160.21 486.775 162.798 487.312 164.607 488.703C167.026 490.56 167.311 493.371 167.357 494.041C167.649 498.241 164.254 500.793 164.099 500.904C160.815 503.287 157.132 502.076 156.757 501.946C153.956 500.973 151.754 498.453 151.39 495.512C150.986 492.228 153.048 489.817 154.115 488.57C156.252 486.068 158.855 485.164 160.174 484.724C163.01 483.779 165.256 483.963 168.983 484.27C171.996 484.518 174.238 484.724 176.621 486.058C177.108 486.331 177.944 486.872 179.613 487.953C181.192 488.977 182.471 489.831 183.325 490.408C182.464 490.268 180.586 490.087 178.546 490.97C177.796 491.295 174.552 492.697 174.112 495.858C173.874 497.574 174.509 499.484 175.9 500.663C177.389 501.924 179.843 502.44 180.705 501.517C181.119 501.074 181.238 500.227 180.918 499.701C180.662 499.279 180.189 499.185 179.822 499.059C178.467 498.601 176.924 497.235 176.751 495.829C176.571 494.388 177.843 492.975 178.993 492.383C179.62 492.063 180.222 492.012 181.401 491.922C183.149 491.789 184.5 491.929 184.947 491.983C187.175 492.25 187.528 492.625 189.806 493.079C190.585 493.234 192.769 493.634 195.519 493.613C197.451 493.598 199.073 493.382 200.274 493.158C199.827 493.321 196.788 494.488 195.815 497.563C195.418 498.814 195.505 499.931 195.627 500.634C196.114 500.238 196.871 499.708 197.895 499.344C199.037 498.94 199.29 499.174 200.807 498.738C202.577 498.23 203.521 497.545 203.745 497.376C204.267 496.983 204.646 496.59 204.895 496.309C204.722 496.745 204.498 497.469 204.549 498.363C204.624 499.773 205.381 501.769 207.191 502.422C208.398 502.858 209.526 502.498 209.995 502.314C209.79 501.78 209.53 500.908 209.566 499.83C209.616 498.468 210.114 497.502 210.579 496.626C211.08 495.682 212.057 494.146 213.863 492.675C212.432 495.555 212.601 498.796 214.342 500.926C215.935 502.872 218.267 503.197 218.48 503.222C219.212 503.312 221.583 503.604 222.964 501.914C224.107 500.519 223.8 498.724 223.739 498.388C223.739 498.399 223.739 498.417 223.739 498.439C223.465 496.983 222.189 495.876 220.65 495.876C218.912 495.876 217.507 497.286 217.507 499.019C217.507 500.515 218.548 501.762 219.947 502.083C219.547 502.083 219.165 502.033 218.83 501.939C216.811 501.373 216.065 499.333 215.867 498.789C215.063 496.59 215.892 494.582 216.187 493.876C217.179 491.482 219.042 490.239 220.646 489.204C221.353 488.746 224.283 486.919 228.818 486.241C230.501 485.989 235.861 485.261 241.635 488.004C243.556 488.916 245.002 489.965 245.961 490.754C245.571 489.932 244.922 488.786 243.877 487.629L243.874 487.633Z" fill="#E6A263"/>
</g>
<g clip-path="url(#clip1_1726_4366)">
<path d="M255.943 487.633C258.722 484.562 262.28 483.689 265.473 482.907C266.223 482.723 269.373 481.981 273.536 481.999C277.069 482.013 280.057 482.576 282.695 483.066C283.524 483.221 284.278 483.376 284.948 483.524C284.941 483.405 284.93 483.289 284.93 483.167C284.93 480.334 287.226 478.038 290.059 478.038C292.892 478.038 295.189 480.334 295.189 483.167C295.189 484.598 294.601 485.892 293.653 486.822C292.81 487.708 291.714 488.325 290.942 488.617C289.832 489.035 288.664 489.053 287.63 489.071C286.368 489.093 285.319 488.945 284.588 488.804C284.764 488.919 285.017 489.074 285.334 489.233C287.143 490.116 288.881 489.947 289.526 489.875C290.456 489.77 292.939 489.323 294.76 487.204C296.771 484.861 297.492 481.036 295.801 478.553C295.268 477.767 294.608 477.284 294.147 477.003C294.32 476.989 297.892 476.722 299.781 479.378C301.039 481.145 300.808 483.163 300.793 483.278C300.671 484.241 300.303 484.965 300.047 485.387C300.873 484.367 302.138 482.983 303.919 481.624C305.584 480.352 306.744 479.465 308.403 479.061C311.045 478.42 315.305 478.91 316.545 481.703C317.58 484.035 316.015 486.858 315.345 487.362C314.941 487.665 314.48 487.867 314.48 487.867C314.195 487.993 313.917 488.076 313.662 488.134C314.527 487.294 314.84 486.176 314.462 485.358C313.968 484.284 312.49 484.18 312.14 484.158C310.378 484.035 308.997 485.189 307.682 486.321C305.638 488.076 305.533 489.089 303.623 490.487C302.48 491.324 301.395 491.785 300.685 492.037C302.884 492.47 305.642 492.647 308.749 491.929C308.831 491.911 308.961 491.879 309.12 491.839C312.133 491.082 314.566 489.673 316.841 487.925C320.02 485.477 319.818 484.724 321.833 483.224C327.604 478.931 335.689 480.323 341.376 481.303C341.376 481.303 344 481.765 347.331 483.174C349.104 483.924 350.002 484.317 350.507 485.124C350.726 485.474 351.004 486.072 351.656 486.353C352.139 486.562 352.63 486.508 352.965 486.432C352.875 486.504 351.768 487.33 350.615 486.995C350.258 486.89 349.973 486.674 349.465 486.299C348.802 485.809 348.369 485.365 348.265 485.257C347.245 484.23 345.529 483.401 344.098 483.015C343.381 482.821 342.231 482.601 340.76 482.723C341.795 483.073 346.452 484.778 348.625 489.539C349.079 490.534 350.499 493.641 349.382 497.087C348.748 499.052 347.551 500.317 347.007 500.879C346.675 501.222 345.064 502.847 342.335 503.738C341.25 504.091 339.113 504.758 336.543 504.112C335.072 503.741 334.077 503.096 333.313 502.591C331.918 501.669 330.033 500.443 329.175 498.078C328.112 495.152 329.172 492.629 329.521 491.832C330.977 488.519 333.955 487.272 334.701 486.973C335.357 486.71 337.83 485.805 340.789 486.598C341.813 486.872 343.586 487.344 344.927 489.028C345.359 489.572 346.639 491.353 346.343 493.807C346.275 494.373 345.936 496.521 344.101 497.891C341.885 499.546 338.039 499.646 336.384 497.383C335.173 495.725 335.26 492.971 336.597 491.616C336.831 491.378 337.073 491.216 337.264 491.107C337.188 491.374 337.109 491.763 337.13 492.228C337.177 493.281 337.729 494.687 338.972 495.271C340.702 496.082 342.494 494.705 342.843 494.416C343.964 493.497 344.97 491.735 344.419 490.066C343.914 488.534 342.375 487.907 341.777 487.662C339.607 486.775 337.019 487.312 335.209 488.703C332.791 490.56 332.506 493.371 332.459 494.041C332.167 498.241 335.562 500.793 335.717 500.904C339.001 503.287 342.685 502.076 343.06 501.946C345.86 500.973 348.063 498.453 348.427 495.512C348.83 492.228 346.769 489.817 345.702 488.57C343.564 486.068 340.962 485.164 339.643 484.724C336.806 483.779 334.56 483.963 330.833 484.27C327.82 484.518 325.578 484.724 323.195 486.058C322.709 486.331 321.873 486.872 320.204 487.953C318.625 488.977 317.345 489.831 316.491 490.408C317.353 490.268 319.23 490.087 321.271 490.97C322.02 491.295 325.264 492.697 325.704 495.858C325.942 497.574 325.308 499.484 323.916 500.663C322.428 501.924 319.973 502.44 319.111 501.517C318.697 501.074 318.578 500.227 318.899 499.701C319.155 499.279 319.627 499.185 319.995 499.059C321.35 498.601 322.893 497.235 323.066 495.829C323.246 494.388 321.973 492.975 320.824 492.383C320.196 492.063 319.594 492.012 318.416 491.922C316.668 491.789 315.316 491.929 314.869 491.983C312.641 492.25 312.288 492.625 310.01 493.079C309.232 493.234 307.047 493.634 304.297 493.613C302.365 493.598 300.743 493.382 299.543 493.158C299.99 493.321 303.028 494.488 304.001 497.563C304.398 498.814 304.311 499.931 304.189 500.634C303.702 500.238 302.945 499.708 301.922 499.344C300.779 498.94 300.527 499.174 299.009 498.738C297.239 498.23 296.295 497.545 296.072 497.376C295.549 496.983 295.17 496.59 294.922 496.309C295.095 496.745 295.318 497.469 295.268 498.363C295.192 499.773 294.435 501.769 292.626 502.422C291.418 502.858 290.29 502.498 289.821 502.314C290.027 501.78 290.286 500.908 290.25 499.83C290.2 498.468 289.702 497.502 289.238 496.626C288.736 495.682 287.76 494.146 285.954 492.675C287.385 495.555 287.215 498.796 285.474 500.926C283.881 502.872 281.549 503.197 281.336 503.222C280.605 503.312 278.233 503.604 276.852 501.914C275.71 500.519 276.016 498.724 276.078 498.388C276.078 498.399 276.078 498.417 276.078 498.439C276.351 496.983 277.627 495.876 279.167 495.876C280.904 495.876 282.31 497.286 282.31 499.019C282.31 500.515 281.268 501.762 279.869 502.083C280.27 502.083 280.652 502.033 280.987 501.939C283.005 501.373 283.751 499.333 283.95 498.789C284.754 496.59 283.924 494.582 283.629 493.876C282.638 491.482 280.774 490.239 279.17 489.204C278.464 488.746 275.533 486.919 270.999 486.241C269.316 485.989 263.956 485.261 258.181 488.004C256.26 488.916 254.815 489.965 253.856 490.754C254.245 489.932 254.894 488.786 255.939 487.629L255.943 487.633Z" fill="#E6A263"/>
</g>
<rect x="76.9531" y="64.7329" width="345.024" height="391.912" rx="8.84677" fill="black"/>
<path opacity="0.5" d="M294.141 260.247L227.79 298.554V221.939L294.141 260.247Z" fill="#D9D9D9"/>
</g>
<defs>
<filter id="filter0_d_1726_4366" x="0.87075" y="0.151644" width="497.188" height="583.886" filterUnits="userSpaceOnUse" color-interpolation-filters="sRGB">
<feFlood flood-opacity="0" result="BackgroundImageFix"/>
<feColorMatrix in="SourceAlpha" type="matrix" values="0 0 0 0 0 0 0 0 0 0 0 0 0 0 0 0 0 0 127 0" result="hardAlpha"/>
<feOffset dy="3.53871"/>
<feGaussianBlur stdDeviation="17.6935"/>
<feComposite in2="hardAlpha" operator="out"/>
<feColorMatrix type="matrix" values="0 0 0 0 1 0 0 0 0 1 0 0 0 0 1 0 0 0 0.5 0"/>
<feBlend mode="normal" in2="BackgroundImageFix" result="effect1_dropShadow_1726_4366"/>
<feBlend mode="normal" in="SourceGraphic" in2="effect1_dropShadow_1726_4366" result="shape"/>
</filter>
<clipPath id="clip0_1726_4366">
<rect width="99.109" height="27.3869" fill="white" transform="translate(146.844 476.992)"/>
</clipPath>
<clipPath id="clip1_1726_4366">
<rect width="99.109" height="27.3869" fill="white" transform="matrix(-1 0 0 1 352.973 476.992)"/>
</clipPath>
</defs>
</svg>
