<svg width="23" height="22" viewBox="0 0 23 22" fill="none" xmlns="http://www.w3.org/2000/svg">
<path d="M18.2829 18.995L12.614 13.3261C12.164 13.686 11.6466 13.971 11.0617 14.1809C10.4769 14.3909 9.85448 14.4959 9.1946 14.4959C7.55991 14.4959 6.17657 13.9296 5.04458 12.797C3.9126 11.6644 3.3463 10.2811 3.3457 8.64699C3.3451 7.0129 3.9114 5.62956 5.04458 4.49698C6.17777 3.36439 7.56111 2.7981 9.1946 2.7981C10.8281 2.7981 12.2117 3.36439 13.3455 4.49698C14.4793 5.62956 15.0453 7.0129 15.0435 8.64699C15.0435 9.30687 14.9385 9.92925 14.7286 10.5141C14.5186 11.099 14.2336 11.6164 13.8737 12.0663L19.5426 17.7353L18.2829 18.995ZM9.1946 12.6962C10.3194 12.6962 11.2756 12.3027 12.0633 11.5156C12.8509 10.7286 13.2444 9.77238 13.2438 8.64699C13.2432 7.5216 12.8497 6.56568 12.0633 5.77923C11.2768 4.99278 10.3206 4.59896 9.1946 4.59776C8.06861 4.59656 7.11269 4.99038 6.32684 5.77923C5.54099 6.56808 5.14716 7.524 5.14536 8.64699C5.14356 9.76998 5.53739 10.7262 6.32684 11.5156C7.11629 12.3051 8.07221 12.6986 9.1946 12.6962Z" fill="#E6A263"/>
</svg>
